<svg xmlns="http://www.w3.org/2000/svg" width="512" height="512" viewBox="0 0 512 512" version="1.1"><path d="" stroke="none" fill="#080404" fill-rule="evenodd"/><path d="M 8.218 21.660 C 2.855 24.308, 0.500 28.540, 0.500 35.528 C 0.500 40.655, 0.948 42.162, 3.500 45.620 C 5.150 47.856, 47.225 99.070, 97 159.430 L 187.500 269.174 188 375.514 C 188.498 481.459, 188.508 481.864, 190.592 484.677 C 194.130 489.452, 198.785 492, 203.969 492 C 208.082 492, 215.254 488.708, 263.681 464.596 C 314.801 439.142, 318.889 436.918, 321.109 433.346 L 323.500 429.500 324 349.337 L 324.500 269.173 416.500 157.560 C 467.100 96.173, 509.512 44.147, 510.750 41.946 C 512.867 38.183, 513.993 29.268, 512.212 30.369 C 511.779 30.637, 510.844 29.544, 510.134 27.940 C 509.424 26.337, 507.416 24.007, 505.672 22.762 L 502.500 20.500 257 20.269 C 32.370 20.059, 11.221 20.177, 8.218 21.660 M 0.286 35.500 C 0.294 38.250, 0.488 39.256, 0.718 37.736 C 0.947 36.216, 0.941 33.966, 0.704 32.736 C 0.467 31.506, 0.279 32.750, 0.286 35.500 M 53.198 56.250 C 89.007 98.582, 217.650 256.171, 218.626 258.900 C 219.638 261.734, 219.922 282.459, 219.956 356.317 L 220 450.135 222.250 449.432 C 223.488 449.046, 239.688 441.139, 258.250 431.862 L 292 414.994 292.044 338.747 C 292.078 279.213, 292.370 261.711, 293.374 258.900 C 294.350 256.171, 422.993 98.582, 458.802 56.250 L 463.243 51 256 51 L 48.757 51 53.198 56.250" stroke="none" fill="#fff" fill-rule="evenodd"/></svg>